{
	"asset":{
		"generator":"Khronos glTF Blender I/O v3.5.30",
		"version":"2.0"
	},
	"extensionsUsed":[
		"KHR_materials_specular",
		"KHR_materials_ior"
	],
	"scene":0,
	"scenes":[
		{
			"name":"Scene",
			"nodes":[
				0
			]
		}
	],
	"nodes":[
		{
			"mesh":0,
			"name":"Jeep_Renegade_2016",
			"rotation":[
				0.7071068286895752,
				0,
				0,
				0.7071068286895752
			]
		}
	],
	"materials":[
		{
			"doubleSided":true,
			"extensions":{
				"KHR_materials_specular":{
					"specularColorFactor":[
						0.7825480438613255,
						0.7825480438613255,
						0.7825480438613255
					]
				},
				"KHR_materials_ior":{
					"ior":1.4500000476837158
				}
			},
			"name":"car_jeep_ren",
			"pbrMetallicRoughness":{
				"baseColorTexture":{
					"index":0
				},
				"metallicFactor":0
			}
		},
		{
			"doubleSided":true,
			"extensions":{
				"KHR_materials_specular":{
					"specularColorFactor":[
						0.7825480438613255,
						0.7825480438613255,
						0.7825480438613255
					]
				},
				"KHR_materials_ior":{
					"ior":1.4500000476837158
				}
			},
			"name":"FrontColor",
			"pbrMetallicRoughness":{
				"metallicFactor":0
			}
		}
	],
	"meshes":[
		{
			"name":"Jeep_Renegade_2016",
			"primitives":[
				{
					"attributes":{
						"POSITION":0,
						"TEXCOORD_0":1,
						"NORMAL":2
					},
					"indices":3,
					"material":0
				},
				{
					"attributes":{
						"POSITION":4,
						"TEXCOORD_0":5,
						"NORMAL":6
					},
					"indices":7,
					"material":1
				}
			]
		}
	],
	"textures":[
		{
			"sampler":0,
			"source":0
		}
	],
	"images":[
		{
			"bufferView":4,
			"mimeType":"image/jpeg",
			"name":"car_jeep_ren"
		}
	],
	"accessors":[
		{
			"bufferView":0,
			"componentType":5126,
			"count":6336,
			"max":[
				0.9700779914855957,
				2.0788700580596924,
				0.008586079813539982
			],
			"min":[
				-0.9700779914855957,
				-2.151129961013794,
				-1.9211000204086304
			],
			"type":"VEC3"
		},
		{
			"bufferView":1,
			"componentType":5126,
			"count":6336,
			"type":"VEC2"
		},
		{
			"bufferView":2,
			"componentType":5126,
			"count":6336,
			"type":"VEC3"
		},
		{
			"bufferView":3,
			"componentType":5123,
			"count":14127,
			"type":"SCALAR"
		},
		{
			"bufferView":5,
			"componentType":5126,
			"count":52,
			"max":[
				0.8439390063285828,
				0.5120660066604614,
				-1.1746799945831299
			],
			"min":[
				-0.8439390063285828,
				-1.8172600269317627,
				-1.2188800573349
			],
			"type":"VEC3"
		},
		{
			"bufferView":6,
			"componentType":5126,
			"count":52,
			"type":"VEC2"
		},
		{
			"bufferView":7,
			"componentType":5126,
			"count":52,
			"type":"VEC3"
		},
		{
			"bufferView":8,
			"componentType":5123,
			"count":75,
			"type":"SCALAR"
		}
	],
	"bufferViews":[
		{
			"buffer":0,
			"byteLength":76032,
			"byteOffset":0,
			"target":34962
		},
		{
			"buffer":0,
			"byteLength":50688,
			"byteOffset":76032,
			"target":34962
		},
		{
			"buffer":0,
			"byteLength":76032,
			"byteOffset":126720,
			"target":34962
		},
		{
			"buffer":0,
			"byteLength":28254,
			"byteOffset":202752,
			"target":34963
		},
		{
			"buffer":0,
			"byteLength":340145,
			"byteOffset":231008
		},
		{
			"buffer":0,
			"byteLength":624,
			"byteOffset":571156,
			"target":34962
		},
		{
			"buffer":0,
			"byteLength":416,
			"byteOffset":571780,
			"target":34962
		},
		{
			"buffer":0,
			"byteLength":624,
			"byteOffset":572196,
			"target":34962
		},
		{
			"buffer":0,
			"byteLength":150,
			"byteOffset":572820,
			"target":34963
		}
	],
	"samplers":[
		{
			"magFilter":9729,
			"minFilter":9987
		}
	],
	"buffers":[
		{
			"byteLength":572972,
			"uri":"data:application/octet-stream;base64,"
		}
	]
}
